<svg xmlns="http://www.w3.org/2000/svg" xml:space="preserve"
    style="fill-rule:evenodd;clip-rule:evenodd;stroke-linejoin:round;stroke-miterlimit:2" viewBox="0 0 132 60">
    <path
        d="m102.169 182.653-41.073-26.571 41.172-26.571-.099 53.142Zm-7.877-38.491L75.809 156.09l18.438 11.928.045-23.856Zm19.93-1.306-.025 39.802-7.949-.005.033-53.142h7.982l8.982 13.712 8.983-13.712h.033v-.005l7.949.005-.034 53.142-7.948-.005.025-39.768-9.001 14.088-9.03-14.112Zm63.808 8.471-7.365 4.75-18.471-11.92.062 33.355-7.939 5.136-.099-53.142 33.812 21.821Zm-19.622 12.654 6.693-4.316 11.935 18.651-6.682 4.332-11.946-18.667Z"
        style="fill:#262626" transform="matrix(1.12884 0 0 1.12882 -68.968 -146.185)" />
</svg>
